<?xml version="1.0" encoding="UTF-8" standalone="no"?>
<!-- Created with Inkscape (http://www.inkscape.org/) -->

<svg
   width="128mm"
   height="128mm"
   viewBox="0 0 128 128"
   version="1.1"
   id="svg1"
   inkscape:export-filename="logo_TaskHive.png"
   inkscape:export-xdpi="96"
   inkscape:export-ydpi="96"
   inkscape:version="1.4.2 (f4327f4, 2025-05-13)"
   sodipodi:docname="logo_TaskHive.svg"
   xmlns:inkscape="http://www.inkscape.org/namespaces/inkscape"
   xmlns:sodipodi="http://sodipodi.sourceforge.net/DTD/sodipodi-0.dtd"
   xmlns="http://www.w3.org/2000/svg"
   xmlns:svg="http://www.w3.org/2000/svg">
  <sodipodi:namedview
     id="namedview1"
     pagecolor="#ffffff"
     bordercolor="#999999"
     borderopacity="1"
     inkscape:showpageshadow="2"
     inkscape:pageopacity="0"
     inkscape:pagecheckerboard="0"
     inkscape:deskcolor="#d1d1d1"
     inkscape:document-units="mm"
     inkscape:zoom="1.0362597"
     inkscape:cx="-271.65004"
     inkscape:cy="253.31487"
     inkscape:window-width="3440"
     inkscape:window-height="1369"
     inkscape:window-x="1072"
     inkscape:window-y="-8"
     inkscape:window-maximized="1"
     inkscape:current-layer="svg1" />
  <defs
     id="defs1">
    <linearGradient
       id="swatch9"
       inkscape:swatch="solid">
      <stop
         style="stop-color:#2c4a59;stop-opacity:1;"
         offset="0"
         id="stop9" />
    </linearGradient>
  </defs>
  <g
     id="g84">
    <g
       id="g83">
      <path
         sodipodi:type="star"
         style="display:inline;fill:#fdc103;fill-opacity:1;fill-rule:nonzero;stroke:#232323;stroke-width:2.64583;stroke-linecap:butt;stroke-linejoin:round;stroke-miterlimit:2.1;stroke-dasharray:none;stroke-opacity:1;paint-order:normal"
         id="path7"
         inkscape:flatsided="true"
         sodipodi:sides="6"
         sodipodi:cx="14.03165"
         sodipodi:cy="20.579754"
         sodipodi:r1="57.504131"
         sodipodi:r2="56.874649"
         sodipodi:arg1="1.0460005"
         sodipodi:arg2="1.5695993"
         inkscape:rounded="0"
         inkscape:randomized="0"
         d="m 42.843308,70.345339 -57.50409,0.06884 -28.811659,-49.765585 28.692432,-49.83442 57.50409,-0.06884 28.811659,49.765586 z"
         transform="matrix(-0.00187205,1.0491029,-1.0491029,-0.00187205,85.391879,49.098234)" />
      <path
         sodipodi:type="star"
         style="fill:#cc9e00;fill-opacity:0.44705883;fill-rule:nonzero;stroke:none;stroke-width:1.12977;stroke-linecap:butt;stroke-linejoin:miter;stroke-miterlimit:16.1;stroke-dasharray:none;stroke-opacity:1;paint-order:normal"
         id="path27"
         inkscape:flatsided="true"
         sodipodi:sides="6"
         sodipodi:cx="-70.050392"
         sodipodi:cy="73.300156"
         sodipodi:r1="19.571981"
         sodipodi:r2="19.266491"
         sodipodi:arg1="0.52143446"
         sodipodi:arg2="1.0450333"
         inkscape:rounded="0"
         inkscape:randomized="0"
         d="m -53.079419,83.049439 -16.928613,9.822652 -16.970974,-9.749283 -0.04236,-19.571935 16.928614,-9.822653 16.970973,9.749283 z"
         transform="translate(133.8995,-48.688815)" />
      <path
         sodipodi:type="star"
         style="fill:#cc9e00;fill-opacity:0.44705883;fill-rule:nonzero;stroke:none;stroke-width:1.12977;stroke-linecap:butt;stroke-linejoin:miter;stroke-miterlimit:16.1;stroke-dasharray:none;stroke-opacity:1;paint-order:normal"
         id="path27-6"
         inkscape:flatsided="true"
         sodipodi:sides="6"
         sodipodi:cx="-70.050392"
         sodipodi:cy="73.300156"
         sodipodi:r1="19.571981"
         sodipodi:r2="19.266491"
         sodipodi:arg1="0.52143446"
         sodipodi:arg2="1.0450333"
         inkscape:rounded="0"
         inkscape:randomized="0"
         d="m -53.079419,83.049439 -16.928613,9.822652 -16.970974,-9.749283 -0.04236,-19.571935 16.928614,-9.822653 16.970973,9.749283 z"
         transform="translate(133.78719,29.64935)" />
      <path
         sodipodi:type="star"
         style="fill:#cc9e00;fill-opacity:0.44705883;fill-rule:nonzero;stroke:none;stroke-width:1.12977;stroke-linecap:butt;stroke-linejoin:miter;stroke-miterlimit:16.1;stroke-dasharray:none;stroke-opacity:1;paint-order:normal"
         id="path27-6-7"
         inkscape:flatsided="true"
         sodipodi:sides="6"
         sodipodi:cx="-70.050392"
         sodipodi:cy="73.300156"
         sodipodi:r1="19.571981"
         sodipodi:r2="19.266491"
         sodipodi:arg1="0.52143446"
         sodipodi:arg2="1.0450333"
         inkscape:rounded="0"
         inkscape:randomized="0"
         d="m -53.079419,83.049439 -16.928613,9.822652 -16.970974,-9.749283 -0.04236,-19.571935 16.928614,-9.822653 16.970973,9.749283 z"
         transform="translate(167.68248,10.107557)" />
      <path
         sodipodi:type="star"
         style="fill:#cc9e00;fill-opacity:0.44705883;fill-rule:nonzero;stroke:none;stroke-width:1.12977;stroke-linecap:butt;stroke-linejoin:miter;stroke-miterlimit:16.1;stroke-dasharray:none;stroke-opacity:1;paint-order:normal"
         id="path27-6-7-5"
         inkscape:flatsided="true"
         sodipodi:sides="6"
         sodipodi:cx="-70.050392"
         sodipodi:cy="73.300156"
         sodipodi:r1="19.571981"
         sodipodi:r2="19.266491"
         sodipodi:arg1="0.52143446"
         sodipodi:arg2="1.0450333"
         inkscape:rounded="0"
         inkscape:randomized="0"
         d="m -53.079419,83.049439 -16.928613,9.822652 -16.970974,-9.749283 -0.04236,-19.571935 16.928614,-9.822653 16.970973,9.749283 z"
         transform="translate(167.75513,-29.117913)" />
      <path
         sodipodi:type="star"
         style="fill:#cc9e00;fill-opacity:0.44705883;fill-rule:nonzero;stroke:none;stroke-width:1.12977;stroke-linecap:butt;stroke-linejoin:miter;stroke-miterlimit:16.1;stroke-dasharray:none;stroke-opacity:1;paint-order:normal"
         id="path27-6-7-5-8"
         inkscape:flatsided="true"
         sodipodi:sides="6"
         sodipodi:cx="-70.050392"
         sodipodi:cy="73.300156"
         sodipodi:r1="19.571981"
         sodipodi:r2="19.266491"
         sodipodi:arg1="0.52143446"
         sodipodi:arg2="1.0450333"
         inkscape:rounded="0"
         inkscape:randomized="0"
         d="m -53.079419,83.049439 -16.928613,9.822652 -16.970974,-9.749283 -0.04236,-19.571935 16.928614,-9.822653 16.970973,9.749283 z"
         transform="translate(99.915548,10.052521)" />
      <path
         sodipodi:type="star"
         style="fill:#cc9e00;fill-opacity:0.44705883;fill-rule:nonzero;stroke:none;stroke-width:1.12977;stroke-linecap:butt;stroke-linejoin:miter;stroke-miterlimit:16.1;stroke-dasharray:none;stroke-opacity:1;paint-order:normal"
         id="path27-6-7-5-8-3"
         inkscape:flatsided="true"
         sodipodi:sides="6"
         sodipodi:cx="-70.050392"
         sodipodi:cy="73.300156"
         sodipodi:r1="19.571981"
         sodipodi:r2="19.266491"
         sodipodi:arg1="0.52143446"
         sodipodi:arg2="1.0450333"
         inkscape:rounded="0"
         inkscape:randomized="0"
         d="m -53.079419,83.049439 -16.928613,9.822652 -16.970974,-9.749283 -0.04236,-19.571935 16.928614,-9.822653 16.970973,9.749283 z"
         transform="translate(99.954028,-29.142419)" />
      <path
         sodipodi:type="star"
         style="fill:#cc9e00;fill-opacity:0.44705883;fill-rule:nonzero;stroke:none;stroke-width:1.12977;stroke-linecap:butt;stroke-linejoin:miter;stroke-miterlimit:16.1;stroke-dasharray:none;stroke-opacity:1;paint-order:normal"
         id="path27-6-7-5-8-3-5"
         inkscape:flatsided="true"
         sodipodi:sides="6"
         sodipodi:cx="-70.050392"
         sodipodi:cy="73.300156"
         sodipodi:r1="19.571981"
         sodipodi:r2="19.266491"
         sodipodi:arg1="0.52143446"
         sodipodi:arg2="1.0450333"
         inkscape:rounded="0"
         inkscape:randomized="0"
         d="m -53.079419,83.049439 -16.928613,9.822652 -16.970974,-9.749283 -0.04236,-19.571935 16.928614,-9.822653 16.970973,9.749283 z"
         transform="translate(133.81439,-9.557211)" />
    </g>
    <g
       id="g17"
       inkscape:label="abeille"
       transform="matrix(0.45015589,0.70473144,-0.70473144,0.45015589,76.064515,6.5716417)"
       style="display:inline">
      <path
         style="fill:none;fill-opacity:1;fill-rule:nonzero;stroke:#232323;stroke-width:1.12977;stroke-linecap:butt;stroke-linejoin:miter;stroke-miterlimit:16.1;stroke-dasharray:none;stroke-opacity:1;paint-order:normal"
         d="m 57.588328,49.146819 c 0,0 -3.499949,-2.124889 -6.89997,-6.690744 -3.25067,-4.36529 -4.181474,-15.184436 -4.181474,-15.184436"
         id="path22"
         sodipodi:nodetypes="csc"
         transform="translate(-7.8471155,-43.402313)" />
      <path
         style="fill:none;fill-opacity:1;fill-rule:nonzero;stroke:#232323;stroke-width:1.12977;stroke-linecap:butt;stroke-linejoin:miter;stroke-miterlimit:16.1;stroke-dasharray:none;stroke-opacity:1;paint-order:normal"
         d="m 65.234519,49.172912 c 0,0 3.499949,-2.124889 6.89997,-6.690744 3.25067,-4.36529 4.181474,-15.184436 4.181474,-15.184436"
         id="path22-0"
         sodipodi:nodetypes="csc"
         transform="translate(-7.8471155,-43.402313)" />
      <path
         style="display:inline;fill:#efefef;fill-opacity:0;fill-rule:nonzero;stroke:#232323;stroke-width:1.05833;stroke-linecap:butt;stroke-linejoin:miter;stroke-miterlimit:16.1;stroke-dasharray:none;stroke-opacity:1;paint-order:normal"
         d="m 49.181818,53.118607 c 0,0 -9.460012,-0.617029 -16.875342,7.458427 -9.478359,10.322141 -17.428364,36.782064 -17.428364,36.782064"
         id="path19"
         sodipodi:nodetypes="csc"
         transform="translate(-4.8798825,-1.2353519)" />
      <path
         style="display:inline;fill:#efefef;fill-opacity:0;fill-rule:nonzero;stroke:#232323;stroke-width:1.05833;stroke-linecap:butt;stroke-linejoin:miter;stroke-miterlimit:16.1;stroke-dasharray:none;stroke-opacity:1;paint-order:normal"
         d="m 63.180406,52.179981 c 0,0 9.460007,-0.61702 16.875337,7.45843 9.47836,10.322142 17.428375,36.782065 17.428375,36.782065"
         id="path19-9"
         sodipodi:nodetypes="csc" />
      <path
         style="display:inline;fill:#efefef;fill-opacity:0;fill-rule:nonzero;stroke:#232323;stroke-width:1.05833;stroke-linecap:butt;stroke-linejoin:miter;stroke-miterlimit:16.1;stroke-dasharray:none;stroke-opacity:1;paint-order:normal"
         d="m 66.327475,41.768989 c 0,0 12.662382,-0.609695 21.505544,5.87093 13.182531,9.660684 24.439841,22.759148 24.439841,22.759148"
         id="path19-9-2"
         sodipodi:nodetypes="csc" />
      <path
         style="display:inline;fill:#efefef;fill-opacity:0;fill-rule:nonzero;stroke:#232323;stroke-width:1.05833;stroke-linecap:butt;stroke-linejoin:miter;stroke-miterlimit:16.1;stroke-dasharray:none;stroke-opacity:1;paint-order:normal"
         d="m 70.404618,33.737486 c 0,0 12.662382,0.609695 21.505544,-5.87093 C 105.0927,18.205872 116.35001,5.1074071 116.35001,5.1074071"
         id="path19-9-2-2"
         sodipodi:nodetypes="csc"
         transform="translate(-4.8798825,-1.2353519)" />
      <path
         style="display:inline;fill:#efefef;fill-opacity:0;fill-rule:nonzero;stroke:#232323;stroke-width:1.05833;stroke-linecap:butt;stroke-linejoin:miter;stroke-miterlimit:16.1;stroke-dasharray:none;stroke-opacity:1;paint-order:normal"
         d="m 45.123001,42.499221 c 0,0 -12.66239,-0.609695 -21.505547,5.87093 -13.182526,9.660684 -24.43983568,22.759148 -24.43983568,22.759148"
         id="path19-9-2-1"
         sodipodi:nodetypes="csc"
         transform="translate(-4.8798825,-1.2353519)" />
      <path
         style="display:inline;fill:#efefef;fill-opacity:0;fill-rule:nonzero;stroke:#232323;stroke-width:1.05833;stroke-linecap:butt;stroke-linejoin:miter;stroke-miterlimit:16.1;stroke-dasharray:none;stroke-opacity:1;paint-order:normal"
         d="m 45.453733,33.770552 c 0,0 -12.662382,0.609695 -21.505544,-5.87093 C 10.765651,18.238938 -0.49165883,5.1404751 -0.49165883,5.1404751"
         id="path19-9-2-2-1"
         sodipodi:nodetypes="csc"
         transform="translate(-4.8798825,-1.2353519)" />
      <path
         style="fill:#efefef;fill-opacity:1;fill-rule:nonzero;stroke:#232323;stroke-width:0.529167;stroke-linecap:butt;stroke-linejoin:miter;stroke-miterlimit:16.1;stroke-dasharray:none;stroke-opacity:1;paint-order:normal"
         d="m 46.917513,105.00025 1.879808,6.92664 1.660039,-7.02151 z"
         id="path18"
         sodipodi:nodetypes="cccc"
         transform="translate(5.2916667,6.35)" />
      <path
         d="m 70.844771,90.699373 h -34.90898 a 18.296829,32.904388 0 0 0 2.621545,9.395297 h 29.666407 a 18.296829,32.904388 0 0 0 2.621028,-9.395297 z"
         style="fill:#fdc103;stroke:#4d2512;stroke-width:0.529167;stroke-linejoin:bevel;stroke-miterlimit:2.1;stroke-opacity:1"
         id="path16" />
      <path
         d="M 70.349194,68.477991 H 36.431885 A 18.296829,32.904388 0 0 0 35.124988,78.898543 H 71.655575 A 18.296829,32.904388 0 0 0 70.349194,68.477991 Z"
         style="fill:#fdc103;stroke:#4d2512;stroke-width:0.529167;stroke-linejoin:bevel;stroke-miterlimit:2.1;stroke-opacity:1"
         id="path14" />
      <path
         d="M 53.39054,47.925757 A 18.296829,32.904388 0 0 0 40.811979,56.934509 H 65.968583 A 18.296829,32.904388 0 0 0 53.39054,47.925757 Z"
         style="fill:#fdc103;stroke:#4d2512;stroke-width:0.529167;stroke-linejoin:bevel;stroke-miterlimit:2.1;stroke-opacity:1"
         id="path12" />
      <path
         d="M 68.223743,100.09467 H 38.557336 a 18.296829,32.904388 0 0 0 14.833204,13.63999 18.296829,32.904388 0 0 0 14.833203,-13.63999 z"
         style="fill:#4d2512;fill-opacity:1;stroke:#4d2512;stroke-width:0.693529;stroke-linejoin:bevel;stroke-miterlimit:2.1;stroke-opacity:1"
         id="path17" />
      <path
         d="M 71.655575,78.898543 H 35.124988 a 18.296829,32.904388 0 0 0 -0.03152,1.931665 18.296829,32.904388 0 0 0 0.842326,9.869165 h 34.90898 A 18.296829,32.904388 0 0 0 71.6871,80.830208 18.296829,32.904388 0 0 0 71.65558,78.898543 Z"
         style="fill:#4d2512;fill-opacity:1;stroke:#4d2512;stroke-width:0.63424;stroke-linejoin:bevel;stroke-miterlimit:2.1;stroke-opacity:1"
         id="path15" />
      <path
         d="M 65.968583,56.934509 H 40.811979 A 18.296829,32.904388 0 0 0 36.431885,68.477991 H 70.349194 A 18.296829,32.904388 0 0 0 65.968583,56.934509 Z"
         style="fill:#4d2512;fill-opacity:1;stroke:#4d2512;stroke-width:0.627311;stroke-linejoin:bevel;stroke-miterlimit:2.1;stroke-opacity:1"
         id="path13" />
      <rect
         style="fill:#4d2512;fill-opacity:1;fill-rule:nonzero;stroke:#4d2512;stroke-width:0.893246;stroke-linecap:butt;stroke-linejoin:miter;stroke-miterlimit:16.1;stroke-dasharray:none;stroke-opacity:1;paint-order:normal"
         id="rect19"
         width="25.497635"
         height="27.105886"
         x="48.029972"
         y="35.904613"
         ry="13.552943"
         rx="2.5649834"
         transform="translate(-7.4991239,-10.215608)" />
      <path
         style="fill:#4d2512;fill-opacity:1;fill-rule:nonzero;stroke:#4d2512;stroke-width:1.12977;stroke-linecap:butt;stroke-linejoin:miter;stroke-miterlimit:16.1;stroke-dasharray:none;stroke-opacity:1;paint-order:normal"
         d="m 60.523437,48.815625 c -4.271217,-0.01831 -6.970279,4.010573 -10.038618,8.307649 -2.726262,3.818011 -6.217556,7.708481 -4.182736,11.271517 4.756814,8.329338 23.772353,9.10324 28.376563,0.264583 2.026153,-3.889587 -1.73037,-8.577232 -4.760092,-12.561418 -3.029722,-3.984186 -5.332642,-7.264914 -9.395117,-7.282331 z"
         id="path20"
         sodipodi:nodetypes="ssssss"
         transform="translate(-7.1249465,-45.388278)" />
      <g
         id="g21"
         transform="rotate(6.0947892,462.64187,-38.92362)">
        <path
           style="fill:#232323;fill-opacity:1;fill-rule:nonzero;stroke:#232323;stroke-width:1.28358;stroke-linecap:butt;stroke-linejoin:miter;stroke-miterlimit:16.1;stroke-dasharray:none;stroke-opacity:1;paint-order:normal"
           id="path21"
           sodipodi:type="arc"
           sodipodi:cx="71.120903"
           sodipodi:cy="40.333355"
           sodipodi:rx="3.3762863"
           sodipodi:ry="6.2585297"
           sodipodi:start="0"
           sodipodi:end="6.2678715"
           sodipodi:arc-type="slice"
           d="m 74.497189,40.333355 a 3.3762863,6.2585297 0 0 1 -3.36336,6.258484 3.3762863,6.2585297 0 0 1 -3.389113,-6.210564 3.3762863,6.2585297 0 0 1 3.33741,-6.306037 3.3762863,6.2585297 0 0 1 3.414667,6.162279 l -3.37589,0.09584 z"
           transform="matrix(0.94047032,0.33987582,-0.36920346,0.92934859,0,0)" />
        <path
           style="fill:#323232;fill-opacity:1;fill-rule:nonzero;stroke:#323232;stroke-width:0.574693;stroke-linecap:butt;stroke-linejoin:miter;stroke-miterlimit:16.1;stroke-dasharray:none;stroke-opacity:1;paint-order:normal"
           id="path21-0"
           sodipodi:type="arc"
           sodipodi:cx="70.316711"
           sodipodi:cy="39.447906"
           sodipodi:rx="1.5116533"
           sodipodi:ry="2.8021104"
           sodipodi:start="0"
           sodipodi:end="6.2678715"
           sodipodi:arc-type="slice"
           d="m 71.828365,39.447906 a 1.5116533,2.8021104 0 0 1 -1.505866,2.80209 1.5116533,2.8021104 0 0 1 -1.517397,-2.780634 1.5116533,2.8021104 0 0 1 1.494248,-2.823381 1.5116533,2.8021104 0 0 1 1.528837,2.759016 l -1.511476,0.04291 z"
           transform="matrix(0.94047032,0.33987582,-0.36920346,0.92934859,0,0)" />
      </g>
      <g
         id="g21-2"
         transform="matrix(-0.99434761,0.10617364,0.10617364,0.99434761,108.26475,-49.156087)"
         style="display:inline">
        <path
           style="fill:#232323;fill-opacity:1;fill-rule:nonzero;stroke:#232323;stroke-width:1.28358;stroke-linecap:butt;stroke-linejoin:miter;stroke-miterlimit:16.1;stroke-dasharray:none;stroke-opacity:1;paint-order:normal"
           id="path21-4"
           sodipodi:type="arc"
           sodipodi:cx="71.120903"
           sodipodi:cy="40.333355"
           sodipodi:rx="3.3762863"
           sodipodi:ry="6.2585297"
           sodipodi:start="0"
           sodipodi:end="6.2678715"
           sodipodi:arc-type="slice"
           d="m 74.497189,40.333355 a 3.3762863,6.2585297 0 0 1 -3.36336,6.258484 3.3762863,6.2585297 0 0 1 -3.389113,-6.210564 3.3762863,6.2585297 0 0 1 3.33741,-6.306037 3.3762863,6.2585297 0 0 1 3.414667,6.162279 l -3.37589,0.09584 z"
           transform="matrix(0.94047032,0.33987582,-0.36920346,0.92934859,0,0)" />
        <path
           style="fill:#323232;fill-opacity:1;fill-rule:nonzero;stroke:#323232;stroke-width:0.574693;stroke-linecap:butt;stroke-linejoin:miter;stroke-miterlimit:16.1;stroke-dasharray:none;stroke-opacity:1;paint-order:normal"
           id="path21-0-8"
           sodipodi:type="arc"
           sodipodi:cx="70.316711"
           sodipodi:cy="39.447906"
           sodipodi:rx="1.5116533"
           sodipodi:ry="2.8021104"
           sodipodi:start="0"
           sodipodi:end="6.2678715"
           sodipodi:arc-type="slice"
           d="m 71.828365,39.447906 a 1.5116533,2.8021104 0 0 1 -1.505866,2.80209 1.5116533,2.8021104 0 0 1 -1.517397,-2.780634 1.5116533,2.8021104 0 0 1 1.494248,-2.823381 1.5116533,2.8021104 0 0 1 1.528837,2.759016 l -1.511476,0.04291 z"
           transform="matrix(0.94047032,0.33987582,-0.36920346,0.92934859,0,0)" />
      </g>
      <path
         style="fill:#efefef;fill-opacity:0.707989;fill-rule:nonzero;stroke:#232323;stroke-width:1.12977;stroke-linecap:butt;stroke-linejoin:miter;stroke-miterlimit:16.1;stroke-dasharray:none;stroke-opacity:1;paint-order:normal"
         d="M 46.727409,33.949952 C 45.10961,31.726664 15.284967,73.141292 9.8218368,96.819744 8.958997,100.55949 8.3215094,105.37747 10.711099,108.29932 c 3.116176,3.81028 9.13141,3.58996 12.663535,1.24184 C 45.336478,94.941026 50.055328,38.523438 46.727407,33.949972 Z"
         id="path23"
         sodipodi:nodetypes="sssss" />
      <path
         style="fill:#efefef;fill-opacity:0.707989;fill-rule:nonzero;stroke:#232323;stroke-width:1.12977;stroke-linecap:butt;stroke-linejoin:miter;stroke-miterlimit:16.1;stroke-dasharray:none;stroke-opacity:1;paint-order:normal"
         d="m 60.647463,34.344544 c 1.617799,-2.223288 31.442442,39.191338 36.905572,62.869788 0.86284,3.739748 1.500328,8.557728 -0.889262,11.479578 -3.116176,3.81028 -9.13141,3.58996 -12.663535,1.24184 C 62.038394,95.335622 57.319544,38.918032 60.647465,34.344564 Z"
         id="path23-8"
         sodipodi:nodetypes="sssss" />
    </g>
  </g>
</svg>
